<svg width="25" height="25" viewBox="0 0 25 25" fill="none" xmlns="http://www.w3.org/2000/svg">
<path d="M13.7701 0.0770364C6.42731 -0.441418 0.362598 5.6233 0.881053 12.9661C1.31511 19.3443 6.88548 24.155 13.2757 24.155H17.7248C18.3879 24.155 18.9305 23.6125 18.9305 22.9493C18.9305 22.2862 18.3879 21.7436 17.7248 21.7436H13.2999C8.80256 21.7436 4.67904 18.8258 3.55773 14.4732C1.76122 7.48009 8.27205 0.957204 15.2652 2.76577C19.6298 3.87502 22.5476 7.99854 22.5476 12.4958V13.8221C22.5476 14.7746 21.6916 15.7151 20.7391 15.7151C19.7866 15.7151 18.9305 14.7746 18.9305 13.8221V12.315C18.9305 9.28865 16.7844 6.56375 13.7942 6.14175C9.69478 5.55095 6.2344 9.09574 6.96988 13.2193C7.37982 15.5222 9.17633 17.4272 11.4551 17.9698C13.6736 18.4882 15.7836 17.7768 17.1702 16.3662C18.2433 17.8371 20.3894 18.6088 22.3547 17.8251C23.9704 17.186 24.9591 15.5342 24.9591 13.798V12.4838C24.9591 6.08147 20.1483 0.511092 13.7701 0.0770364ZM12.902 15.7151C10.9005 15.7151 9.28484 14.0994 9.28484 12.098C9.28484 10.0965 10.9005 8.48083 12.902 8.48083C14.9034 8.48083 16.5191 10.0965 16.5191 12.098C16.5191 14.0994 14.9034 15.7151 12.902 15.7151Z" fill="#EBEBEB"/>
</svg>
