<svg width="31" height="26" viewBox="0 0 31 26" fill="none" xmlns="http://www.w3.org/2000/svg">
<g clip-path="url(#clip0_220_364)">
<rect width="30.1177" height="24.5882" transform="translate(0 0.705933)" fill="#363636"/>
<path d="M9.15572 19.5186C6.88203 19.4766 4.92786 18.1157 4.03131 16.1681C4.19841 16.181 4.36739 16.1877 4.5383 16.1877C5.13997 16.1877 5.72336 16.1071 6.27793 15.9561L6.24992 15.1297C3.81394 14.6406 1.93375 12.6117 1.66699 10.1025C2.38742 10.4033 3.17296 10.5811 3.99553 10.6071L5.47898 10.6541L4.24499 9.82939C2.70021 8.79701 1.68483 7.03576 1.68483 5.03957C1.68483 4.20348 1.86297 3.40966 2.18322 2.6935C5.29466 6.24429 9.77987 8.56089 14.8113 8.81334L15.3741 8.84158L15.2463 8.29275C15.1484 7.87246 15.0973 7.43318 15.0973 6.98099C15.0973 3.80328 17.6737 1.2269 20.8517 1.2269C22.507 1.2269 24.0021 1.92543 25.0522 3.04416L25.2132 3.21568L25.444 3.17023C26.4835 2.96552 27.4781 2.63578 28.4114 2.19738C27.9192 3.06625 27.2066 3.79492 26.3503 4.30817L26.6191 5.09428C27.4015 5.00078 28.1618 4.83797 28.8944 4.6112C28.2712 5.3393 27.5626 5.99314 26.7858 6.55369L26.5998 6.68797L26.61 6.9172C26.6217 7.17573 26.6275 7.43586 26.6275 7.69749C26.6275 15.6801 20.5539 24.8533 9.47187 24.8533C6.68984 24.8533 4.06556 24.1872 1.74291 23.0103C4.63213 22.9511 7.28872 21.9399 9.40989 20.2776L10.3504 19.5406L9.15572 19.5186Z" stroke="#EBEBEB" stroke-width="0.849557"/>
</g>
<defs>
<clipPath id="clip0_220_364">
<rect width="30.1177" height="24.5882" fill="white" transform="translate(0 0.705933)"/>
</clipPath>
</defs>
</svg>
